<?xml version="1.0" encoding="utf-8"?>
<!-- Generator: Adobe Illustrator 16.0.0, SVG Export Plug-In . SVG Version: 6.00 Build 0)  -->
<!DOCTYPE svg PUBLIC "-//W3C//DTD SVG 1.1//EN" "http://www.w3.org/Graphics/SVG/1.1/DTD/svg11.dtd">
<svg version="1.1" id="Layer_1" xmlns="http://www.w3.org/2000/svg" xmlns:xlink="http://www.w3.org/1999/xlink" x="0px" y="0px"
	 width="10px" height="20px" viewBox="0 0 10 20" enable-background="new 0 0 10 20" xml:space="preserve">
<path d="M9.145,8.883c0.321,0,0.582-0.329,0.582-0.739V5.335c0-0.408-0.261-0.74-0.582-0.74H8.68V4.386
	c0-0.23-0.274-0.418-0.607-0.418H1.927c-0.335,0-0.607,0.188-0.607,0.418v0.209H0.855c-0.322,0-0.581,0.332-0.581,0.74v2.809
	c0,0.41,0.259,0.739,0.581,0.739H1.32v5.157H0.855c-0.322,0-0.581,0.33-0.581,0.739v2.81c0,0.409,0.259,0.739,0.581,0.739H1.32
	v0.254C1.32,18.813,1.592,19,1.927,19h6.145c0.333,0,0.607-0.188,0.607-0.418v-0.254h0.465c0.321,0,0.582-0.33,0.582-0.739v-2.81
	c0-0.409-0.261-0.739-0.582-0.739H8.68V8.883H9.145z"/>
</svg>
