<?xml version="1.0" encoding="utf-8"?>
<!-- Generator: Adobe Illustrator 16.0.0, SVG Export Plug-In . SVG Version: 6.00 Build 0)  -->
<!DOCTYPE svg PUBLIC "-//W3C//DTD SVG 1.1//EN" "http://www.w3.org/Graphics/SVG/1.1/DTD/svg11.dtd">
<svg version="1.1" id="Layer_1" xmlns="http://www.w3.org/2000/svg" xmlns:xlink="http://www.w3.org/1999/xlink" x="0px" y="0px"
	 width="50px" height="70px" viewBox="0 0 50 70" enable-background="new 0 0 50 70" xml:space="preserve">
<path d="M25,46.842c-9.107,0-16.517-7.408-16.517-16.516V17.86c0-9.107,7.41-16.517,16.517-16.517
	c9.107,0,16.517,7.41,16.517,16.517v12.465C41.517,39.434,34.107,46.842,25,46.842z M25,3.006c-8.191,0-14.854,6.664-14.854,14.854
	v12.465c0,8.19,6.664,14.854,14.854,14.854c8.19,0,14.854-6.664,14.854-14.854V17.86C39.854,9.669,33.19,3.006,25,3.006z"/>
<path d="M24.585,6.892V5.014c-6.816,0-12.362,5.545-12.362,12.362v0.312h12.362v-1.877c-1.473-0.205-2.615-1.459-2.615-2.987V9.879
	C21.97,8.351,23.112,7.096,24.585,6.892z"/>
<path d="M25.415,5.014v1.877c1.474,0.205,2.615,1.459,2.615,2.987v2.944c0,1.528-1.142,2.783-2.615,2.987v1.877h12.362v-0.312
	C37.777,10.56,32.231,5.014,25.415,5.014z"/>
<path d="M25,7.818c-1.214,0-2.199,0.984-2.199,2.198v2.944c0,1.214,0.984,2.199,2.199,2.199c1.215,0,2.199-0.984,2.199-2.199v-2.944
	C27.199,8.803,26.215,7.818,25,7.818z"/>
<circle cx="25" cy="25.34" r="1.792"/>
<circle cx="25" cy="30.923" r="1.792"/>
<circle cx="25" cy="36.506" r="1.792"/>
<path d="M34.073,61.088c-0.394-0.564-1.169-0.705-1.734-0.311l-6.092,4.246V42.635c0-0.688-0.559-1.246-1.247-1.246
	s-1.247,0.559-1.247,1.246v22.389l-6.091-4.246c-0.565-0.395-1.341-0.254-1.735,0.311c-0.394,0.564-0.254,1.342,0.31,1.736
	l8.051,5.609c0.001,0,0.003,0,0.005,0.002c0.029,0.02,0.061,0.035,0.092,0.053c0.028,0.016,0.055,0.031,0.084,0.045
	c0.041,0.02,0.084,0.035,0.128,0.051c0.023,0.008,0.047,0.016,0.071,0.023c0.02,0.004,0.038,0.012,0.058,0.018
	c0.088,0.02,0.178,0.031,0.271,0.031c0,0,0.001,0,0.002,0l0,0H25h0.001l0,0c0.001,0,0.002,0,0.003,0
	c0.093,0,0.183-0.012,0.271-0.031c0.02-0.006,0.039-0.014,0.059-0.018c0.023-0.008,0.047-0.016,0.07-0.023
	c0.044-0.016,0.087-0.031,0.129-0.051c0.029-0.014,0.056-0.029,0.084-0.045c0.029-0.018,0.063-0.033,0.092-0.053
	c0.001-0.002,0.003-0.002,0.005-0.002l8.05-5.609C34.328,62.43,34.467,61.652,34.073,61.088z"/>
</svg>
