<?xml version="1.0" encoding="utf-8"?>
<!-- Generator: Adobe Illustrator 16.0.0, SVG Export Plug-In . SVG Version: 6.00 Build 0)  -->
<!DOCTYPE svg PUBLIC "-//W3C//DTD SVG 1.1//EN" "http://www.w3.org/Graphics/SVG/1.1/DTD/svg11.dtd">
<svg version="1.1" id="Layer_1" xmlns="http://www.w3.org/2000/svg" xmlns:xlink="http://www.w3.org/1999/xlink" x="0px" y="0px"
	 width="30px" height="30px" viewBox="0 0 30 30" enable-background="new 0 0 30 30" xml:space="preserve">
<g>
	<path d="M19.229,20.559c0.236-0.496,0.836-1.096,1.332-1.332l8.139-3.602c0.43-0.345,0.43-0.908,0-1.253l-8.139-3.603
		c-0.496-0.236-1.096-0.835-1.332-1.332l-3.602-8.138c-0.345-0.429-0.908-0.429-1.253,0l-3.603,8.138
		c-0.236,0.497-0.835,1.096-1.332,1.332L1.3,14.372c-0.429,0.345-0.429,0.908,0,1.253l8.138,3.602
		c0.497,0.236,1.096,0.836,1.332,1.332l3.603,8.141c0.345,0.428,0.908,0.428,1.253,0L19.229,20.559z"/>
</g>
</svg>
